<svg width="25.000000" height="25.000000" viewBox="0 0 25 25" fill="none" xmlns="http://www.w3.org/2000/svg" xmlns:xlink="http://www.w3.org/1999/xlink">
	<desc>
			Created with Pixso.
	</desc>
	<defs>
		<clipPath id="clip117_553">
			<rect id="system-uicons:filtering" width="25.000000" height="25.000000" fill="white" fill-opacity="0"/>
		</clipPath>
	</defs>
	<rect id="system-uicons:filtering" width="25.000000" height="25.000000" fill="#FFFFFF" fill-opacity="0"/>
	<g clip-path="url(#clip117_553)">
		<path id="Vector" d="M8.57 5.11C8.8 5.33 8.92 5.63 8.92 5.95L8.92 8.33C8.92 8.64 8.8 8.95 8.57 9.17C8.35 9.39 8.05 9.52 7.73 9.52C7.42 9.52 7.11 9.39 6.89 9.17C6.67 8.95 6.54 8.64 6.54 8.33L6.54 5.95C6.54 5.63 6.67 5.33 6.89 5.11C7.11 4.88 7.42 4.76 7.73 4.76C8.05 4.76 8.35 4.88 8.57 5.11ZM22.02 7.14L8.92 7.14M6.54 7.14L2.97 7.14M8.57 17.01C8.8 17.23 8.92 17.54 8.92 17.85L8.92 20.23C8.92 20.55 8.8 20.85 8.57 21.07C8.35 21.3 8.05 21.42 7.73 21.42C7.42 21.42 7.11 21.3 6.89 21.07C6.67 20.85 6.54 20.55 6.54 20.23L6.54 17.85C6.54 17.54 6.67 17.23 6.89 17.01C7.11 16.79 7.42 16.66 7.73 16.66C8.05 16.66 8.35 16.79 8.57 17.01ZM22.02 19.04L8.92 19.04M6.54 19.04L2.97 19.04M18.1 11.06C18.32 11.28 18.45 11.58 18.45 11.9L18.45 14.28C18.45 14.6 18.32 14.9 18.1 15.12C17.88 15.35 17.57 15.47 17.26 15.47C16.94 15.47 16.64 15.35 16.42 15.12C16.19 14.9 16.07 14.6 16.07 14.28L16.07 11.9C16.07 11.58 16.19 11.28 16.42 11.06C16.64 10.83 16.94 10.71 17.26 10.71C17.57 10.71 17.88 10.83 18.1 11.06ZM16.07 13.09L2.97 13.09M22.02 13.09L18.45 " stroke="#000000" stroke-opacity="1.000000" stroke-width="1.000000" stroke-linejoin="round"/>
	</g>
</svg>
