<svg width="28.000000" height="28.000000" viewBox="0 0 28 28" fill="none" xmlns="http://www.w3.org/2000/svg" xmlns:xlink="http://www.w3.org/1999/xlink">
	<desc>
			Created with Pixso.
	</desc>
	<defs>
		<clipPath id="clip117_557">
			<rect id="ci:grid-big-round" width="28.000000" height="28.000000" fill="white" fill-opacity="0"/>
		</clipPath>
	</defs>
	<rect id="ci:grid-big-round" width="28.000000" height="28.000000" fill="#FFFFFF" fill-opacity="0"/>
	<g clip-path="url(#clip117_557)">
		<path id="Vector" d="M18.66 22.16C17.73 22.16 16.84 21.79 16.19 21.14C15.53 20.48 15.16 19.59 15.16 18.66C15.16 17.73 15.53 16.84 16.19 16.19C16.84 15.53 17.73 15.16 18.66 15.16C19.59 15.16 20.48 15.53 21.14 16.19C21.79 16.84 22.16 17.73 22.16 18.66C22.16 19.59 21.79 20.48 21.14 21.14C20.48 21.79 19.59 22.16 18.66 22.16ZM9.33 22.16C8.4 22.16 7.51 21.79 6.85 21.14C6.2 20.48 5.83 19.59 5.83 18.66C5.83 17.73 6.2 16.84 6.85 16.19C7.51 15.53 8.4 15.16 9.33 15.16C10.26 15.16 11.15 15.53 11.8 16.19C12.46 16.84 12.83 17.73 12.83 18.66C12.83 19.59 12.46 20.48 11.8 21.14C11.15 21.79 10.26 22.16 9.33 22.16ZM18.66 12.83C17.73 12.83 16.84 12.46 16.19 11.8C15.53 11.15 15.16 10.26 15.16 9.33C15.16 8.4 15.53 7.51 16.19 6.85C16.84 6.2 17.73 5.83 18.66 5.83C19.59 5.83 20.48 6.2 21.14 6.85C21.79 7.51 22.16 8.4 22.16 9.33C22.16 10.26 21.79 11.15 21.14 11.8C20.48 12.46 19.59 12.83 18.66 12.83ZM9.33 12.83C8.4 12.83 7.51 12.46 6.85 11.8C6.2 11.15 5.83 10.26 5.83 9.33C5.83 8.4 6.2 7.51 6.85 6.85C7.51 6.2 8.4 5.83 9.33 5.83C10.26 5.83 11.15 6.2 11.8 6.85C12.46 7.51 12.83 8.4 12.83 9.33C12.83 10.26 12.46 11.15 11.8 11.8C11.15 12.46 10.26 12.83 9.33 12.83Z" fill="#000000" fill-opacity="1.000000" fill-rule="nonzero"/>
	</g>
</svg>
