<svg width="12.000000" height="13.000000" viewBox="0 0 12 13" fill="none" xmlns="http://www.w3.org/2000/svg" xmlns:xlink="http://www.w3.org/1999/xlink">
	<desc>
			Created with Pixso.
	</desc>
	<defs/>
	<path id="Vector" d="M10 8.66C9.47 8.66 9 8.87 8.64 9.2L3.93 6.46C3.97 6.31 4 6.16 4 6C4 5.84 3.97 5.68 3.93 5.53L8.64 2.79C9 3.12 9.47 3.33 10 3.33C11.1 3.33 12 2.44 12 1.33C12 0.22 11.1 -0.67 10 -0.67C8.89 -0.67 8 0.22 8 1.33C8 1.49 8.02 1.64 8.06 1.8L3.35 4.54C3 4.2 2.52 4 2 4C0.89 4 0 4.89 0 6C0 7.1 0.89 8 2 8C2.52 8 3 7.79 3.35 7.46L8.05 10.2C8.02 10.35 8 10.51 8 10.66C8 11.06 8.11 11.44 8.33 11.77C8.55 12.1 8.86 12.36 9.23 12.51C9.6 12.66 10 12.7 10.39 12.62C10.77 12.55 11.13 12.36 11.41 12.08C11.69 11.8 11.88 11.44 11.96 11.05C12.03 10.66 11.99 10.26 11.84 9.9C11.69 9.53 11.44 9.22 11.11 9C10.78 8.78 10.39 8.66 10 8.66Z" fill="#FFFFFF" fill-opacity="1.000000" fill-rule="nonzero"/>
</svg>
