<svg width="24.000000" height="24.000000" viewBox="0 0 24 24" fill="none" xmlns="http://www.w3.org/2000/svg" xmlns:xlink="http://www.w3.org/1999/xlink">
	<desc>
			Created with Pixso.
	</desc>
	<defs>
		<clipPath id="clip117_555">
			<rect id="bi:view-list" width="24.000000" height="24.000000" fill="white" fill-opacity="0"/>
		</clipPath>
	</defs>
	<rect id="bi:view-list" width="24.000000" height="24.000000" fill="#FFFFFF" fill-opacity="0"/>
	<g clip-path="url(#clip117_555)">
		<path id="Vector" d="M4.5 6.75L19.5 6.75C20.29 6.75 21.05 7.06 21.62 7.62C22.18 8.19 22.5 8.95 22.5 9.75L22.5 14.25C22.5 15.04 22.18 15.8 21.62 16.37C21.05 16.93 20.29 17.25 19.5 17.25L4.5 17.25C3.7 17.25 2.94 16.93 2.37 16.37C1.81 15.8 1.5 15.04 1.5 14.25L1.5 9.75C1.5 8.95 1.81 8.19 2.37 7.62C2.94 7.06 3.7 6.75 4.5 6.75ZM4.5 8.25C4.1 8.25 3.72 8.4 3.43 8.68C3.15 8.97 3 9.35 3 9.75L3 14.25C3 14.64 3.15 15.02 3.43 15.31C3.72 15.59 4.1 15.75 4.5 15.75L19.5 15.75C19.89 15.75 20.27 15.59 20.56 15.31C20.84 15.02 21 14.64 21 14.25L21 9.75C21 9.35 20.84 8.97 20.56 8.68C20.27 8.4 19.89 8.25 19.5 8.25L4.5 8.25ZM1.5 3C1.5 2.8 1.57 2.61 1.71 2.46C1.86 2.32 2.05 2.25 2.25 2.25L21.75 2.25C21.94 2.25 22.13 2.32 22.28 2.46C22.42 2.61 22.5 2.8 22.5 3C22.5 3.19 22.42 3.38 22.28 3.53C22.13 3.67 21.94 3.75 21.75 3.75L2.25 3.75C2.05 3.75 1.86 3.67 1.71 3.53C1.57 3.38 1.5 3.19 1.5 3ZM1.5 21C1.5 20.8 1.57 20.61 1.71 20.46C1.86 20.32 2.05 20.25 2.25 20.25L21.75 20.25C21.94 20.25 22.13 20.32 22.28 20.46C22.42 20.61 22.5 20.8 22.5 21C22.5 21.19 22.42 21.38 22.28 21.53C22.13 21.67 21.94 21.75 21.75 21.75L2.25 21.75C2.05 21.75 1.86 21.67 1.71 21.53C1.57 21.38 1.5 21.19 1.5 21Z" fill="#000000" fill-opacity="1.000000" fill-rule="nonzero"/>
	</g>
</svg>
